<svg width="160" height="164" viewBox="0 0 160 164" fill="none"
    xmlns="http://www.w3.org/2000/svg">
    <path d="M9.3 16.85L9.75 16.55H11.85C21.25 17.05 32.75 17.1 46.35 16.7C49.65 16.6 51.5 16.9 51.9 17.6C52.1 17.9 51.95 19.05 51.45 21.05C50.85 23.25 50.35 24.45 49.95 24.65C49.65 24.75 48.5 24.85 46.5 24.95C44.1 25.15 42.5 25.25 41.7 25.25C39.6 25.65 38.35 26 37.95 26.3C37.85 26.4 39.1 38.35 41.7 62.15C44.3 86.05 45.65 98.15 45.75 98.45C45.75 98.55 45.9 98.4 46.2 98C47.1 96.7 53.9 85.7 66.6 65C80.7 41.6 87.7 30.05 87.6 30.35C88 29.35 88.15 28.55 88.05 27.95C87.55 26.25 85.35 25.25 81.45 24.95C79.95 24.95 79 24.6 78.6 23.9C78.5 23.6 78.65 22.45 79.05 20.45C79.55 18.55 80 17.4 80.4 17L80.85 16.55H82.65C90.95 16.95 98.7 17.05 105.9 16.85L113.25 16.55H114.3L114.75 17C115.15 17.4 115.35 17.8 115.35 18.2C115.35 19.8 114.85 21.75 113.85 24.05C113.65 24.65 112.55 24.95 110.55 24.95C105.55 25.25 101.65 26.4 98.85 28.4C98.05 29.1 97.1 30.15 96 31.55C95.3 32.55 86.1 47.55 68.4 76.55C50.3 106.15 41.2 121 41.1 121.1C41.1 121.2 40.7 121.5 39.9 122C39.4 122.2 38.05 122.3 35.85 122.3C33.75 122.3 32.45 122.15 31.95 121.85C31.65 121.55 31.5 121.3 31.5 121.1C31.5 120.5 29.7 104.65 26.1 73.55C22.7 41.95 20.9 26.05 20.7 25.85C20.6 25.75 20.25 25.6 19.65 25.4C18.45 25.1 15.75 24.95 11.55 24.95C9.15 24.95 7.85 24.65 7.65 24.05C7.45 23.75 7.55 22.6 7.95 20.6C8.45 18.5 8.9 17.25 9.3 16.85Z" fill="white"/>
    <path d="M103 123.75C104.726 123.75 106.125 122.351 106.125 120.625C106.125 118.899 104.726 117.5 103 117.5C101.274 117.5 99.875 118.899 99.875 120.625C99.875 122.351 101.274 123.75 103 123.75Z" stroke="white" stroke-width="4" stroke-linecap="round" stroke-linejoin="round"/>
    <path d="M146.75 123.75C148.476 123.75 149.875 122.351 149.875 120.625C149.875 118.899 148.476 117.5 146.75 117.5C145.024 117.5 143.625 118.899 143.625 120.625C143.625 122.351 145.024 123.75 146.75 123.75Z" stroke="white" stroke-width="4" stroke-linecap="round" stroke-linejoin="round"/>
    <path d="M78 55H90.5L99.875 108.125H149.875" stroke="white" stroke-width="7" stroke-linecap="square" stroke-linejoin="round"/>
    <path d="M99.875 95.625H148.594C148.955 95.6253 149.305 95.5002 149.585 95.2713C149.864 95.0423 150.056 94.7235 150.127 94.3691L155.752 66.2441C155.797 66.0174 155.792 65.7833 155.736 65.5589C155.68 65.3345 155.575 65.1254 155.428 64.9466C155.281 64.7677 155.097 64.6237 154.888 64.5249C154.678 64.426 154.45 64.3748 154.219 64.375H93.625" stroke="white" stroke-width="7" stroke-linecap="round" stroke-linejoin="round"/>
</svg>
